<svg width="1479" height="676" viewBox="0 0 1479 676" fill="none" xmlns="http://www.w3.org/2000/svg">
<g filter="url(#filter0_df_233_3)">
<path d="M11.0121 664.818C10.7391 622.06 15.1026 579.686 24.0985 537.693C25.8067 529.826 27.6762 521.989 29.7112 514.185C31.742 506.378 33.9341 498.607 36.2917 490.874C38.6451 483.14 41.1598 475.451 43.8317 467.799C46.5036 460.15 49.3326 452.546 52.3189 444.99C55.3051 437.433 58.4485 429.925 61.745 422.472C65.0455 415.02 68.495 407.626 72.0975 400.284C75.7 392.946 79.4556 385.67 83.36 378.454C87.2644 371.238 91.3178 364.092 95.52 357.008C99.7181 349.929 104.065 342.916 108.557 335.98C113.045 329.041 117.677 322.18 122.454 315.396C127.227 308.612 132.141 301.905 137.191 295.284C142.241 288.659 147.432 282.122 152.751 275.671C158.074 269.22 163.529 262.857 169.113 256.586C174.701 250.316 180.413 244.138 186.253 238.056C192.093 231.974 198.057 225.988 204.145 220.102C210.238 214.216 216.446 208.434 222.77 202.751C229.098 197.072 235.542 191.496 242.102 186.027C248.662 180.559 255.329 175.201 262.108 169.954C268.891 164.707 275.778 159.571 282.768 154.55C289.762 149.532 296.855 144.629 304.052 139.84C311.244 135.055 318.541 130.388 325.928 125.843C333.315 121.299 340.797 116.876 348.366 112.579C355.939 108.278 363.595 104.106 371.341 100.06C379.084 96.014 386.91 92.0973 394.818 88.31C402.722 84.5226 410.704 80.8683 418.761 77.3433C426.818 73.8183 434.946 70.43 443.143 67.1747C451.341 63.9194 459.605 60.8009 467.931 57.8153C476.257 54.8335 484.645 51.9884 493.086 49.2836C501.532 46.5789 510.028 44.0109 518.581 41.587C527.13 39.1631 535.729 36.8796 544.373 34.7365C553.018 32.5934 561.704 30.5981 570.431 28.7433C579.162 26.8884 587.922 25.1776 596.72 23.6109C620.229 19.4172 643.908 16.269 667.76 14.1592C691.617 12.0531 715.528 11 739.5 11C763.469 11 787.384 12.0531 811.236 14.1592C835.089 16.269 858.772 19.4172 882.277 23.6109C891.083 25.1628 899.851 26.8588 908.587 28.7026C917.322 30.5427 926.012 32.5306 934.665 34.6589C943.317 36.7872 951.924 39.0596 960.482 41.4761C969.039 43.889 977.543 46.4459 985.997 49.1395C994.447 51.8369 1002.84 54.6746 1011.17 57.6454C1019.51 60.6198 1027.78 63.731 1035.98 66.9826C1044.19 70.2304 1052.32 73.6113 1060.39 77.129C1068.45 80.6466 1076.44 84.2972 1084.35 88.0809C1092.26 91.8608 1100.1 95.7738 1107.85 99.8161C1115.6 103.855 1123.26 108.026 1130.84 112.32C1138.42 116.617 1145.91 121.036 1153.3 125.577C1160.69 130.122 1167.99 134.785 1175.19 139.57C1182.39 144.355 1189.49 149.259 1196.49 154.28C1203.48 159.298 1210.37 164.434 1217.16 169.681C1223.94 174.931 1230.62 180.289 1237.18 185.758C1243.74 191.23 1250.18 196.805 1256.52 202.488C1262.84 208.171 1269.06 213.958 1275.14 219.844C1281.24 225.733 1287.2 231.719 1293.05 237.805C1298.89 243.894 1304.6 250.072 1310.19 256.35C1315.77 262.624 1321.22 268.99 1326.54 275.446C1331.86 281.901 1337.05 288.445 1342.1 295.073C1347.15 301.698 1352.06 308.408 1356.83 315.2C1361.6 321.991 1366.23 328.856 1370.71 335.799C1375.2 342.746 1379.54 349.759 1383.73 356.846C1387.93 363.933 1391.98 371.09 1395.87 378.31C1399.77 385.534 1403.52 392.816 1407.11 400.162C1410.71 407.508 1414.15 414.909 1417.44 422.369C1420.73 429.829 1423.86 437.341 1426.83 444.905C1429.81 452.468 1432.63 460.076 1435.29 467.732C1437.95 475.388 1440.45 483.088 1442.8 490.826C1445.14 498.567 1447.32 506.341 1449.34 514.156C1451.35 521.967 1453.21 529.808 1454.9 537.682C1463.89 579.675 1468.25 622.049 1467.99 664.804C1467.99 664.925 1467.92 664.985 1467.79 664.985C1467.65 664.985 1467.58 664.925 1467.58 664.804C1467.56 622.097 1462.92 579.797 1453.66 537.9C1451.92 530.07 1450.01 522.27 1447.95 514.503C1445.89 506.736 1443.67 499.003 1441.29 491.31C1438.9 483.617 1436.36 475.965 1433.67 468.353C1430.97 460.741 1428.12 453.178 1425.11 445.662C1422.1 438.143 1418.93 430.679 1415.62 423.267C1412.3 415.855 1408.83 408.498 1405.21 401.2C1401.59 393.903 1397.82 386.664 1393.9 379.492C1389.98 372.317 1385.92 365.211 1381.7 358.169C1377.49 351.13 1373.13 344.161 1368.63 337.263C1364.13 330.368 1359.49 323.547 1354.71 316.8C1349.93 310.056 1345.01 303.394 1339.96 296.81C1334.9 290.229 1329.71 283.73 1324.38 277.319C1319.06 270.908 1313.61 264.586 1308.02 258.356C1302.44 252.123 1296.73 245.986 1290.89 239.941C1285.05 233.896 1279.09 227.95 1273.01 222.105C1266.92 216.256 1260.72 210.51 1254.4 204.868C1248.08 199.222 1241.65 193.687 1235.1 188.252C1228.55 182.82 1221.89 177.499 1215.12 172.286C1208.35 167.076 1201.48 161.977 1194.5 156.988C1187.52 152.004 1180.44 147.134 1173.26 142.379C1166.08 137.627 1158.81 132.993 1151.44 128.478C1144.06 123.966 1136.6 119.573 1129.06 115.305C1121.5 111.038 1113.86 106.896 1106.14 102.879C1098.42 98.8628 1090.61 94.972 1082.73 91.2142C1074.85 87.4527 1066.89 83.8243 1058.86 80.3251C1050.83 76.8297 1042.72 73.4635 1034.55 70.2341C1026.38 67.001 1018.14 63.9046 1009.85 60.945C1001.54 57.9853 993.19 55.1623 984.773 52.4798C976.356 49.7935 967.889 47.2477 959.369 44.8423C950.849 42.4368 942.279 40.1718 933.664 38.0472C925.052 35.9226 916.396 33.9421 907.702 32.102C899.003 30.2619 890.272 28.5659 881.508 27.014C858.118 22.8941 834.559 19.7977 810.831 17.7285C787.102 15.6594 763.32 14.6248 739.48 14.6248C715.64 14.6248 691.853 15.6594 668.129 17.7285C644.4 19.7977 620.841 22.8941 597.452 27.014C588.687 28.5696 579.956 30.2656 571.262 32.1057C562.564 33.9458 553.911 35.9263 545.296 38.0546C536.685 40.1792 528.119 42.4442 519.598 44.8534C511.078 47.2588 502.612 49.8046 494.195 52.4909C485.782 55.1771 477.423 58.0001 469.126 60.9634C460.829 63.9231 452.594 67.0195 444.421 70.2526C436.253 73.482 428.15 76.8481 420.118 80.3473C412.086 83.8464 404.128 87.4749 396.249 91.2364C388.365 94.9942 380.565 98.885 372.843 102.901C365.121 106.918 357.481 111.064 349.933 115.331C342.381 119.599 334.919 123.992 327.549 128.504C320.183 133.019 312.907 137.653 305.727 142.404C298.551 147.16 291.47 152.03 284.492 157.018C277.515 162.003 270.641 167.102 263.874 172.315C257.108 177.529 250.449 182.85 243.901 188.281C237.354 193.713 230.918 199.252 224.598 204.894C218.282 210.54 212.078 216.285 205.998 222.131C199.914 227.98 193.954 233.925 188.118 239.97C182.278 246.011 176.566 252.153 170.982 258.382C165.399 264.616 159.947 270.938 154.62 277.349C149.297 283.759 144.11 290.255 139.052 296.836C133.998 303.42 129.08 310.082 124.299 316.826C119.517 323.569 114.877 330.39 110.377 337.288C105.877 344.183 101.521 351.152 97.3109 358.195C93.0963 365.233 89.0305 372.339 85.1137 379.515C81.1927 386.687 77.4248 393.925 73.8057 401.223C70.1825 408.52 66.7165 415.873 63.3952 423.285C60.0781 430.697 56.9182 438.165 53.9071 445.68C50.8961 453.196 48.0463 460.76 45.3455 468.368C42.6488 475.979 40.1092 483.632 37.7269 491.324C35.3445 499.017 33.1234 506.747 31.0595 514.514C28.9956 522.281 27.0972 530.081 25.3518 537.911C16.0829 579.808 11.4422 622.108 11.4298 664.818C11.4298 664.937 11.3636 664.999 11.2271 664.999C11.0824 665.007 11.0121 664.948 11.0121 664.818Z" fill="url(#paint0_linear_233_3)"/>
</g>
<g filter="url(#filter1_d_233_3)">
<path d="M11.0121 664.818C10.7391 622.06 15.1026 579.686 24.0985 537.693C25.8067 529.826 27.6762 521.989 29.7112 514.185C31.742 506.378 33.9341 498.607 36.2917 490.874C38.6451 483.14 41.1598 475.451 43.8317 467.799C46.5036 460.15 49.3326 452.546 52.3189 444.99C55.3051 437.433 58.4485 429.925 61.745 422.472C65.0455 415.02 68.495 407.626 72.0975 400.284C75.7 392.946 79.4556 385.67 83.36 378.454C87.2644 371.238 91.3178 364.092 95.52 357.008C99.7181 349.929 104.065 342.916 108.557 335.98C113.045 329.041 117.677 322.18 122.454 315.396C127.227 308.612 132.141 301.905 137.191 295.284C142.241 288.659 147.432 282.122 152.751 275.671C158.074 269.22 163.529 262.857 169.113 256.586C174.701 250.316 180.413 244.138 186.253 238.056C192.093 231.974 198.057 225.988 204.145 220.102C210.238 214.216 216.446 208.434 222.77 202.751C229.098 197.072 235.542 191.496 242.102 186.027C248.662 180.559 255.329 175.201 262.108 169.954C268.891 164.707 275.778 159.571 282.768 154.55C289.762 149.532 296.855 144.629 304.052 139.84C311.244 135.055 318.541 130.388 325.928 125.843C333.315 121.299 340.797 116.876 348.366 112.579C355.939 108.278 363.595 104.106 371.341 100.06C379.084 96.014 386.91 92.0973 394.818 88.31C402.722 84.5226 410.704 80.8683 418.761 77.3433C426.818 73.8183 434.946 70.43 443.143 67.1747C451.341 63.9194 459.605 60.8009 467.931 57.8153C476.257 54.8335 484.645 51.9884 493.086 49.2836C501.532 46.5789 510.028 44.0109 518.581 41.587C527.13 39.1631 535.729 36.8796 544.373 34.7365C553.018 32.5934 561.704 30.5981 570.431 28.7433C579.162 26.8884 587.922 25.1776 596.72 23.6109C620.229 19.4172 643.908 16.269 667.76 14.1592C691.617 12.0531 715.528 11 739.5 11C763.469 11 787.384 12.0531 811.236 14.1592C835.089 16.269 858.772 19.4172 882.277 23.6109C891.083 25.1628 899.851 26.8588 908.587 28.7026C917.322 30.5427 926.012 32.5306 934.665 34.6589C943.317 36.7872 951.924 39.0596 960.482 41.4761C969.039 43.889 977.543 46.4459 985.997 49.1395C994.447 51.8369 1002.84 54.6746 1011.17 57.6454C1019.51 60.6198 1027.78 63.731 1035.98 66.9826C1044.19 70.2304 1052.32 73.6113 1060.39 77.129C1068.45 80.6466 1076.44 84.2972 1084.35 88.0809C1092.26 91.8608 1100.1 95.7738 1107.85 99.8161C1115.6 103.855 1123.26 108.026 1130.84 112.32C1138.42 116.617 1145.91 121.036 1153.3 125.577C1160.69 130.122 1167.99 134.785 1175.19 139.57C1182.39 144.355 1189.49 149.259 1196.49 154.28C1203.48 159.298 1210.37 164.434 1217.16 169.681C1223.94 174.931 1230.62 180.289 1237.18 185.758C1243.74 191.23 1250.18 196.805 1256.52 202.488C1262.84 208.171 1269.06 213.958 1275.14 219.844C1281.24 225.733 1287.2 231.719 1293.05 237.805C1298.89 243.894 1304.6 250.072 1310.19 256.35C1315.77 262.624 1321.22 268.99 1326.54 275.446C1331.86 281.901 1337.05 288.445 1342.1 295.073C1347.15 301.698 1352.06 308.408 1356.83 315.2C1361.6 321.991 1366.23 328.856 1370.71 335.799C1375.2 342.746 1379.54 349.759 1383.73 356.846C1387.93 363.933 1391.98 371.09 1395.87 378.31C1399.77 385.534 1403.52 392.816 1407.11 400.162C1410.71 407.508 1414.15 414.909 1417.44 422.369C1420.73 429.829 1423.86 437.341 1426.83 444.905C1429.81 452.468 1432.63 460.076 1435.29 467.732C1437.95 475.388 1440.45 483.088 1442.8 490.826C1445.14 498.567 1447.32 506.341 1449.34 514.156C1451.35 521.967 1453.21 529.808 1454.9 537.682C1463.89 579.675 1468.25 622.049 1467.99 664.804C1467.99 664.925 1467.92 664.985 1467.79 664.985C1467.65 664.985 1467.58 664.925 1467.58 664.804C1467.56 622.097 1462.92 579.797 1453.66 537.9C1451.92 530.07 1450.01 522.27 1447.95 514.503C1445.89 506.736 1443.67 499.003 1441.29 491.31C1438.9 483.617 1436.36 475.965 1433.67 468.353C1430.97 460.741 1428.12 453.178 1425.11 445.662C1422.1 438.143 1418.93 430.679 1415.62 423.267C1412.3 415.855 1408.83 408.498 1405.21 401.2C1401.59 393.903 1397.82 386.664 1393.9 379.492C1389.98 372.317 1385.92 365.211 1381.7 358.169C1377.49 351.13 1373.13 344.161 1368.63 337.263C1364.13 330.368 1359.49 323.547 1354.71 316.8C1349.93 310.056 1345.01 303.394 1339.96 296.81C1334.9 290.229 1329.71 283.73 1324.38 277.319C1319.06 270.908 1313.61 264.586 1308.02 258.356C1302.44 252.123 1296.73 245.986 1290.89 239.941C1285.05 233.896 1279.09 227.95 1273.01 222.105C1266.92 216.256 1260.72 210.51 1254.4 204.868C1248.08 199.222 1241.65 193.687 1235.1 188.252C1228.55 182.82 1221.89 177.499 1215.12 172.286C1208.35 167.076 1201.48 161.977 1194.5 156.988C1187.52 152.004 1180.44 147.134 1173.26 142.379C1166.08 137.627 1158.81 132.993 1151.44 128.478C1144.06 123.966 1136.6 119.573 1129.06 115.305C1121.5 111.038 1113.86 106.896 1106.14 102.879C1098.42 98.8628 1090.61 94.972 1082.73 91.2142C1074.85 87.4527 1066.89 83.8243 1058.86 80.3251C1050.83 76.8297 1042.72 73.4635 1034.55 70.2341C1026.38 67.001 1018.14 63.9046 1009.85 60.945C1001.54 57.9853 993.19 55.1623 984.773 52.4798C976.356 49.7935 967.889 47.2477 959.369 44.8423C950.849 42.4368 942.279 40.1718 933.664 38.0472C925.052 35.9226 916.396 33.9421 907.702 32.102C899.003 30.2619 890.272 28.5659 881.508 27.014C858.118 22.8941 834.559 19.7977 810.831 17.7285C787.102 15.6594 763.32 14.6248 739.48 14.6248C715.64 14.6248 691.853 15.6594 668.129 17.7285C644.4 19.7977 620.841 22.8941 597.452 27.014C588.687 28.5696 579.956 30.2656 571.262 32.1057C562.564 33.9458 553.911 35.9263 545.296 38.0546C536.685 40.1792 528.119 42.4442 519.598 44.8534C511.078 47.2588 502.612 49.8046 494.195 52.4909C485.782 55.1771 477.423 58.0001 469.126 60.9634C460.829 63.9231 452.594 67.0195 444.421 70.2526C436.253 73.482 428.15 76.8481 420.118 80.3473C412.086 83.8464 404.128 87.4749 396.249 91.2364C388.365 94.9942 380.565 98.885 372.843 102.901C365.121 106.918 357.481 111.064 349.933 115.331C342.381 119.599 334.919 123.992 327.549 128.504C320.183 133.019 312.907 137.653 305.727 142.404C298.551 147.16 291.47 152.03 284.492 157.018C277.515 162.003 270.641 167.102 263.874 172.315C257.108 177.529 250.449 182.85 243.901 188.281C237.354 193.713 230.918 199.252 224.598 204.894C218.282 210.54 212.078 216.285 205.998 222.131C199.914 227.98 193.954 233.925 188.118 239.97C182.278 246.011 176.566 252.153 170.982 258.382C165.399 264.616 159.947 270.938 154.62 277.349C149.297 283.759 144.11 290.255 139.052 296.836C133.998 303.42 129.08 310.082 124.299 316.826C119.517 323.569 114.877 330.39 110.377 337.288C105.877 344.183 101.521 351.152 97.3109 358.195C93.0963 365.233 89.0305 372.339 85.1137 379.515C81.1927 386.687 77.4248 393.925 73.8057 401.223C70.1825 408.52 66.7165 415.873 63.3952 423.285C60.0781 430.697 56.9182 438.165 53.9071 445.68C50.8961 453.196 48.0463 460.76 45.3455 468.368C42.6488 475.979 40.1092 483.632 37.7269 491.324C35.3445 499.017 33.1234 506.747 31.0595 514.514C28.9956 522.281 27.0972 530.081 25.3518 537.911C16.0829 579.808 11.4422 622.108 11.4298 664.818C11.4298 664.937 11.3636 664.999 11.2271 664.999C11.0824 665.007 11.0121 664.948 11.0121 664.818Z" fill="url(#paint1_linear_233_3)"/>
</g>
<defs>
<filter id="filter0_df_233_3" x="0.4" y="0.4" width="1478.2" height="675.2" filterUnits="userSpaceOnUse" color-interpolation-filters="sRGB">
<feFlood flood-opacity="0" result="BackgroundImageFix"/>
<feColorMatrix in="SourceAlpha" type="matrix" values="0 0 0 0 0 0 0 0 0 0 0 0 0 0 0 0 0 0 127 0" result="hardAlpha"/>
<feOffset dy="4"/>
<feGaussianBlur stdDeviation="2"/>
<feComposite in2="hardAlpha" operator="out"/>
<feColorMatrix type="matrix" values="0 0 0 0 0 0 0 0 0 0 0 0 0 0 0 0 0 0 0.25 0"/>
<feBlend mode="normal" in2="BackgroundImageFix" result="effect1_dropShadow_233_3"/>
<feBlend mode="normal" in="SourceGraphic" in2="effect1_dropShadow_233_3" result="shape"/>
<feGaussianBlur stdDeviation="5.3" result="effect2_foregroundBlur_233_3"/>
</filter>
<filter id="filter1_d_233_3" x="7" y="11" width="1465" height="662" filterUnits="userSpaceOnUse" color-interpolation-filters="sRGB">
<feFlood flood-opacity="0" result="BackgroundImageFix"/>
<feColorMatrix in="SourceAlpha" type="matrix" values="0 0 0 0 0 0 0 0 0 0 0 0 0 0 0 0 0 0 127 0" result="hardAlpha"/>
<feOffset dy="4"/>
<feGaussianBlur stdDeviation="2"/>
<feComposite in2="hardAlpha" operator="out"/>
<feColorMatrix type="matrix" values="0 0 0 0 0 0 0 0 0 0 0 0 0 0 0 0 0 0 0.25 0"/>
<feBlend mode="normal" in2="BackgroundImageFix" result="effect1_dropShadow_233_3"/>
<feBlend mode="normal" in="SourceGraphic" in2="effect1_dropShadow_233_3" result="shape"/>
</filter>
<linearGradient id="paint0_linear_233_3" x1="739.5" y1="-5.5" x2="739.5" y2="559" gradientUnits="userSpaceOnUse">
<stop stop-color="#3AFF4E"/>
<stop offset="1" stop-color="#020F03"/>
</linearGradient>
<linearGradient id="paint1_linear_233_3" x1="739.5" y1="-5.5" x2="739.5" y2="559" gradientUnits="userSpaceOnUse">
<stop stop-color="#3AFF4E"/>
<stop offset="1" stop-color="#020F03"/>
</linearGradient>
</defs>
</svg>
